<svg xmlns="http://www.w3.org/2000/svg" xmlns:xlink="http://www.w3.org/1999/xlink" width="704.955" height="833.555" viewBox="0 0 704.955 833.555"><defs><linearGradient id="a" x1="0.5" x2="0.5" y2="1" gradientUnits="objectBoundingBox"><stop offset="0" stop-color="#40bde8"/><stop offset="1" stop-color="#fff"/></linearGradient><clipPath id="b"><rect width="555.502" height="493.003" fill="none"/></clipPath></defs><g transform="translate(-1215.045 -258.223)"><path d="M19094-203.432s-129.012-27.356-278,141.917-373.477,203.888-414,352.7,19.635,299.3,102.637,325.614,589.363,0,589.363,0Z" transform="translate(-17174 463.287)" opacity="0.1" fill="url(#a)"/><g transform="translate(1230 428.499)"><g clip-path="url(#b)"><path d="M120.12,40.928c-.28,0-.561-.005-.846-.016-7.622-.268-14.085-4.252-17.287-10.657A21.155,21.155,0,0,1,112.762,2.477h0a21.988,21.988,0,0,1,22.824,1.515,18.463,18.463,0,0,1,7.507,17.522l6.5,6.006a1,1,0,0,1-.6,1.731l-8.963.7A23.409,23.409,0,0,1,120.12,40.928M123.151,2a21.43,21.43,0,0,0-9.538,2.287l-.041.019a19.137,19.137,0,0,0-9.773,25.1c2.847,5.692,8.667,9.263,15.547,9.506A21.424,21.424,0,0,0,138.58,28.486a1,1,0,0,1,.783-.489l7.192-.561-5.2-4.809a1,1,0,0,1-.31-.886,16.311,16.311,0,0,0-6.634-16.134A19,19,0,0,0,123.151,2m-9.983,1.39h0Z" fill="#8dc63f"/><path d="M38.563,133.12a1.5,1.5,0,0,0-1.858-1.022L20.3,136.86l-4.749-16.352a1.5,1.5,0,1,0-2.881.836L17.421,137.7,1.083,142.441a1.5,1.5,0,0,0,.417,2.941,1.477,1.477,0,0,0,.418-.06l16.339-4.744,4.759,16.389a1.5,1.5,0,0,0,2.881-.836l-4.759-16.39,16.4-4.763a1.5,1.5,0,0,0,1.022-1.858" fill="#8dc63f"/><path d="M51.764,428.944a17.338,17.338,0,0,1-17-20.718v0a17.327,17.327,0,1,1,17,20.72m-14.056-20.13a14.321,14.321,0,1,0,2.161-5.2,14.342,14.342,0,0,0-2.161,5.2" fill="#8dc63f"/><path d="M265.755,48.53a.993.993,0,0,1,.059.75,33.759,33.759,0,0,0,32.119,23.552h.016a33.7,33.7,0,0,0,.018-67.4h-.018a33.7,33.7,0,0,0-33.7,33.682h0a33.6,33.6,0,0,0,1.254,9.1.989.989,0,0,1,.252.315" fill="#40bde8"/><path d="M72.778,220.924c3.4.087,6.58.168,9.386.225.007,0,.013,0,.02,0l.02,0h.018c8.069.148,22.594.227,30.665-.027.107-1.123.223-2.27.35-3.453a1,1,0,0,1,.92-.891l91.326-6.8a45.4,45.4,0,0,1,20.819,3.45l23.225,9.853c-6.506-13.964-5.63-27.7-4.4-46.686l.144-2.24c.537-8.416,1.38-10.1,2.747-10.275a1.469,1.469,0,0,1,.221.012l-2.444-10.753a4.462,4.462,0,0,1,8.695-2.007l10,43.995c.093-.421.186-.843.277-1.261a62.392,62.392,0,0,1,1.571-6.255c.954-2.825,2.521-6.124,4.662-5.822,1.46.212,3,1.754,3.368,11.582l.051,1.447c.32,9.336.8,23.444,9.852,28.7a176.124,176.124,0,0,0,24.194,11.435,104.393,104.393,0,0,0,26.8,6.578c.092,0,.185.006.278.006,4.22,0,10.359-4.947,16.538-13.35-.862-1.116-1.707-2.246-2.52-3.4a1,1,0,0,1,.024-1.183,425.359,425.359,0,0,0,26.43-38.85,38.086,38.086,0,0,1,2.218-3.244L320.3,66.968a35.423,35.423,0,0,1-22.349,7.864h-.02a35.475,35.475,0,0,1-15.45-3.528L220.549,191.578a1,1,0,0,1-.888.542,1.064,1.064,0,0,1-.159-.012L51.653,165.039a23.758,23.758,0,0,0,1.077,18.883l18.689,36.967,1.359.035" fill="#fff"/><path d="M356.9,277.264l.015-.008.015-.009c7.65-4.18,16.4-12,26.021-23.236a83.883,83.883,0,0,1-19.376-13.163,96.728,96.728,0,0,1-10.206-10.825c-4.267,5.725-11.63,14.04-18.266,13.706a106.375,106.375,0,0,1-27.359-6.706,178,178,0,0,1-24.469-11.567c-10.014-5.818-10.52-20.591-10.854-30.368l-.05-1.44c-.331-8.895-1.635-9.657-1.691-9.686-.268.078-1.37,1.3-2.448,4.493a61.912,61.912,0,0,0-1.511,6.038c-.394,1.812-.8,3.669-1.269,5.346a.968.968,0,0,1-.082.3c-.019.069-.037.142-.057.21-1.018,3.5-2.045,5.24-3.434,5.8a2.652,2.652,0,0,1-2.389-.235,4.391,4.391,0,0,1-1.893-2.382c-.794-2.266-1.641-5.576-2.5-9.295,0-.008-.009-.014-.01-.022l-5.277-23.208c-.212-.768-.42-1.479-.622-2.106a16.236,16.236,0,0,0-.908-2.337,38.336,38.336,0,0,0-1.014,7.917l-.144,2.242c-1.265,19.584-2.15,33.467,5.3,47.831a.982.982,0,0,1,.429.828,73.726,73.726,0,0,0,11.29,15.227c10.753,11.483,54.263,34.538,77.627,39.252a22.7,22.7,0,0,0,15.129-2.6" fill="#fff"/><path d="M280.708,70.38a35.873,35.873,0,0,1-16.6-19.9L63.24,151.963a23.689,23.689,0,0,0-10.8,11.178L219.1,190.018Z" fill="#fff"/><path d="M325.732,386.5h0a24.508,24.508,0,0,0-16.846-6.662c-.278,0-.556.005-.837.014a24.683,24.683,0,1,0,15.2,44.74,10.584,10.584,0,0,1-2.177-8.761h0a10.592,10.592,0,0,1,12.3-8.347,24.992,24.992,0,0,0,.162-3.79,24.5,24.5,0,0,0-7.8-17.193" fill="#fff"/><path d="M405.386,149.49a1,1,0,0,1,1.736.959l-5.845,14.69q.075,1.648.047,3.3a20.98,20.98,0,0,1,2.1.127.841.841,0,0,1,.138.027,14.812,14.812,0,0,0,12.49-2.416q-.222-.638-.444-1.273-1.3-3.7-2.576-7.421c-1.184-3.507-4.833-14.521-6.049-19.041-.332-1.275-.609-2.425-.879-3.553-.593-2.467-1.152-4.8-2.207-8.068a1,1,0,0,1,.263-1.032c1.968-1.868,2.715-4.049,2.05-5.983a3.365,3.365,0,0,0-2.638-2.374,2.954,2.954,0,0,0-2.726,1.785c-1.552,2.561-2.123,2.839-3.695,3.333l-.489.156c-3.009.991-12.243,3.7-20.559,2.9a50.913,50.913,0,0,0,7.609,26.679c4.373,6.243,9.429,7.542,14.994,3.822l.01-.005a29.409,29.409,0,0,0,6.673-6.609" fill="#fff"/><path d="M351.617,224.439c.79,1.1,1.619,2.176,2.456,3.242a.969.969,0,0,1,.159.21,94.724,94.724,0,0,0,10.684,11.476A81.909,81.909,0,0,0,387.7,254.019c5.209-6.161,10.163-12.643,14.73-19.272.017-.024.044-.037.063-.059a.89.89,0,0,1,.159-.154.857.857,0,0,1,.147-.1,1.046,1.046,0,0,1,.181-.071.981.981,0,0,1,.187-.035.843.843,0,0,1,.181,0,.86.86,0,0,1,.2.043.933.933,0,0,1,.092.018c.029.013.048.038.075.052a.987.987,0,0,1,.1.043c.033.022.051.057.08.082a1.208,1.208,0,0,1,.117.121.993.993,0,0,1,.121.189,1.013,1.013,0,0,1,.054.138.972.972,0,0,1,.043.226.837.837,0,0,1,0,.15.953.953,0,0,1-.047.228c-.01.029-.006.059-.018.086-.144.332-15.139,33.108-40.091,46.353,8.39,6.391,17.129,12.41,26.079,17.938a87.219,87.219,0,0,0,35.117-53.772l0-.007s0-.006,0-.01a112.674,112.674,0,0,0,2.524-32.951c-1.106-15.683-6.025-30.63-11.062-45.1a16.813,16.813,0,0,1-13.619,2.385,18.97,18.97,0,0,0-8.969,1.166A34.931,34.931,0,0,0,380.2,182.439c-.017.022-.032.044-.051.065a35.59,35.59,0,0,0-2.422,3.488,427.186,427.186,0,0,1-26.108,38.447" fill="#fff"/><path d="M197.456,264.4c8.585-12.911,25.622-18.971,49.364-17.506a153.945,153.945,0,0,1,27.719,4.5,72.245,72.245,0,0,1-11.857-9.412A75.85,75.85,0,0,1,250.9,226.041l-25.382-10.769a43.405,43.405,0,0,0-19.894-3.3l-69.363,5.165a80.159,80.159,0,0,0,7.407,46.751Z" fill="#40bde8"/><path d="M115.137,218.712c-1.908,18.091-1.726,28.685,7.21,44.977l19.1.179a82.108,82.108,0,0,1-7.22-46.578Z" fill="#40bde8"/><path d="M255.074,184.872c1.5,6.943,3.049,14.124,4.414,18.021a2.389,2.389,0,0,0,1.019,1.3.654.654,0,0,0,.62.1c.493-.2,1.286-1.143,2.263-4.506.012-.039.022-.081.033-.12l-10.884-47.88a2.462,2.462,0,0,0-4.795,1.116l4.024,17.7c1.038,3.777,2.145,8.888,3.306,14.265" fill="#40bde8"/><path d="M358.683,332.508c20.355-8.907,28.7-27.046,30.279-30.9a327.8,327.8,0,0,1-27.075-18.7.993.993,0,0,1-.576-.439q-2.027-1.563-4.024-3.153a24.622,24.622,0,0,1-15.893,2.511c-16.862-3.4-43.062-15.644-61.162-26.789a1.046,1.046,0,0,1-.159-.018c-.616-.2-61.69-19.658-81.267,10.927-7.7,12.025-10.527,34.765-10.4,60.668a.283.283,0,0,0,0,.029A470.748,470.748,0,0,0,191.6,376.6a163.684,163.684,0,0,0,45.643-.825c-.306-13.424-.154-28.183.122-41.708l-13.887-33.489a1,1,0,0,1,1.327-1.3c.06.027,6.121,2.694,14.646,6.355l.011.007L288.7,327a141.182,141.182,0,0,0,23.441,7.938,1,1,0,0,1,.44.1c17.489,4.064,32.933,3.229,46.1-2.534" fill="#40bde8"/><path d="M49.892,241.117c-9.975-6.029-19.449-11.761-24.162-16.274l-.02-.019q-.433-.417-.814-.82c-.075-.08-.146-.158-.218-.236-.1-.108-.208-.218-.3-.324-3.638.574-4.038,1.328-4.042,1.336-.753,3.1,12.508,11.12,23.163,17.567,8.256,5,16.793,10.161,22.63,14.869a53.58,53.58,0,0,0,13.916,8.219,27.219,27.219,0,0,0,7.709.287,67.827,67.827,0,0,1-12.539-7.995c-6.478-5.221-16.058-11.011-25.324-16.61" fill="#fff"/><path d="M510.545,140.983a1.006,1.006,0,0,1,.152-.241c.011-.012.014-.029.026-.041l.007-.005c.016-.018.024-.041.042-.058a1,1,0,0,1,1.336-.044l1.724,1.447c9.772,8.2,19.016,15.951,26.217,25.152l11.818-9.379a2.477,2.477,0,0,0,.613-.67,2.47,2.47,0,0,0-.795-3.4,1.039,1.039,0,0,1-.1-.072A281.747,281.747,0,0,0,496.8,118.947a.957.957,0,0,1-.113-.063,2.493,2.493,0,0,0-3.712,2.934l21.347,61.509a2.5,2.5,0,0,0,3.912,1.146l12.932-10.241a208.118,208.118,0,0,0-20.3-32.015c-.035-.034-.068-.069-.1-.1a.985.985,0,0,1-.289-.822c0-.011,0-.021.006-.031a.972.972,0,0,1,.072-.279" fill="#fff"/><path d="M211.5,379.828a166.021,166.021,0,0,1-19.655-1.184c.635,5.391,1.335,10.718,2.093,15.912a80.474,80.474,0,0,0,41.483.344,1,1,0,0,1,.4-.11c.75-.2,1.5-.4,2.245-.617-.365-5.032-.61-10.564-.764-16.374a165.608,165.608,0,0,1-25.8,2.029" fill="#40bde8"/><path d="M105.188,257.6c1.122,1.317,2.281,2.608,3.456,3.886.146.158.289.318.436.476,2.532-.367,6.767-.811,9.585-1.039-6.306-12.806-7.233-22.8-5.954-37.789-7.658.233-20.778.174-28.982.046A136.965,136.965,0,0,0,105.186,257.6h0" fill="#fff"/><path d="M218.61,416.052l.468-.3q2.19-1.384,4.328-2.853.48-.328.956-.663,1.872-1.307,3.7-2.679c.427-.321.853-.642,1.276-.967q1.634-1.254,3.229-2.561.756-.617,1.506-1.244.677-.568,1.348-1.147c-.261-2.32-.428-4.516-.508-6.567a81.971,81.971,0,0,1-38.524.16c.372,8.04-.071,19.194-.646,30.3a136.941,136.941,0,0,0,22.867-11.48" fill="#fff"/><path d="M143.155,265.885a.417.417,0,0,1-.3,0l-21.107-.2a1,1,0,0,1-.864-.515c-.438-.788-.839-1.553-1.238-2.318-2.887.208-8.169.755-10.79,1.165h-.016c-3.265.5-6.524,1.126-9.678,1.731-1.6.306-3.135.6-4.629.869l31.878,63.112a23.859,23.859,0,0,0,31.958,10.51l28.07-14.17c-.068-25.032,2.638-47.133,9.8-59.683Z" fill="#fff"/><path d="M236.352,428.581q-.735,1.185-1.521,2.337c-.151.223-.3.448-.454.669q-.894,1.282-1.846,2.523c-.147.192-.3.381-.446.571-.682.871-1.377,1.732-2.1,2.57-5.444,6.293-11.593,15.668-17.541,24.735-3.442,5.247-6.791,10.346-9.879,14.656-.121.17-.244.343-.365.511-.213.294-.423.58-.633.866s-.407.556-.608.825c-.152.2-.3.4-.452.6-.249.329-.5.656-.742.971-.115.149-.229.293-.343.439-.271.344-.539.682-.8,1.008-.1.117-.188.229-.283.343-.277.337-.551.664-.821.978l-.246.282c-.275.315-.547.619-.814.908-.077.083-.152.163-.228.243q-.4.425-.784.807l-.225.218q-.378.366-.743.689c-.075.066-.15.131-.224.194-.119.1-.242.217-.358.311.454,3.779,1.179,4.13,1.187,4.133,3.033.964,11.556-12.061,18.4-22.527,5.29-8.084,10.758-16.444,15.66-22.091A53.376,53.376,0,0,0,237.9,432.7a27.561,27.561,0,0,0,.544-7.705c-.075.14-.161.274-.237.413-.5.911-1.014,1.814-1.555,2.7-.1.159-.2.314-.3.472" fill="#fff"/><path d="M523.692,153.119a117.07,117.07,0,0,1,15.391,16.094.994.994,0,0,0,.671.386,1,1,0,0,0,.746-.209l12.6-10a4.467,4.467,0,0,0-.3-7.31,283.822,283.822,0,0,0-55.076-34.91,4.493,4.493,0,0,0-6.633,5.314l21.342,61.494a4.5,4.5,0,0,0,7.043,2.059l13.575-10.748a1,1,0,0,0,.27-1.236A210.06,210.06,0,0,0,521.23,153.3c47.422,56.507,42.127,141.159-12.928,191.228a138.342,138.342,0,0,1-193.208-6.888c16.708,3.4,31.571,2.311,44.391-3.3,22.035-9.642,30.5-29.817,31.542-32.51a89.2,89.2,0,0,0,36.027-54.411c22.936-.181,39.735-8.024,47.337-22.157,6.821-12.682,5.422-29.09-3.65-42.822-9.878-14.947-27.24-24.24-30.812-26.041.49-5.936,2.859-45.234-18.984-55.842-21.13-10.264-31.586,4.009-33.474,6.985-5.148.105-9.223,1.639-12.118,4.566-4.372,4.42-4.542,10.469-4.53,11.676a.977.977,0,0,0,.008.132,1,1,0,0,0,.705.837,21.9,21.9,0,0,0,2.564.581,52.937,52.937,0,0,0,7.94,28.047c4.679,6.682,10.5,8.476,16.512,5.157a50.8,50.8,0,0,1,.777,9.966,20.99,20.99,0,0,0-5.929,1.352,37.038,37.038,0,0,0-13.806,10.129L321.868,65.636q.669-.606,1.312-1.247A35.7,35.7,0,0,0,297.969,3.432h-.019a35.681,35.681,0,0,0-34.432,45.109L62.337,150.178a25.7,25.7,0,0,0-12.093,12.986.984.984,0,0,0-.335.581.97.97,0,0,0,.008.216,25.767,25.767,0,0,0,1.027,20.861l18.205,36.01c-15.66-.392-35.3-.78-44.5.548-.008,0-.015,0-.022.006-3.9.549-5.876,1.472-6.227,2.906-1.052,4.318,8.46,10.324,24.067,19.767,8.2,4.961,16.677,10.091,22.4,14.71A55.526,55.526,0,0,0,79.4,267.33a.971.971,0,0,0,.191.055,29.194,29.194,0,0,0,11.688-.216c.016,0,.032,0,.048,0,.376-.059.762-.126,1.145-.19l32.154,63.656a25.837,25.837,0,0,0,34.641,11.393L186.449,328.3a508.282,508.282,0,0,0,5.6,67.189,1,1,0,0,0,.717.817c.529.15,1.062.283,1.593.422.44,8.347-.07,20.394-.695,32.228l0,.014c-.155,2.681-.342,5.7-.543,8.932-1.011,16.249-2.4,38.5-1.28,48.573a.086.086,0,0,0,0,.016c.417,4.017,1.2,5.925,2.627,6.381a2.813,2.813,0,0,0,.852.131c4.253,0,10.438-9.1,19.836-23.469,5.252-8.028,10.684-16.329,15.49-21.869a55.315,55.315,0,0,0,9.126-14.251,1.052,1.052,0,0,0,.063-.192,29.609,29.609,0,0,0,.172-11.75.147.147,0,0,1-.007-.019c-.3-2.371-.677-4.88-1.077-7.538-.495-3.269-1-6.649-1.4-10.017a.976.976,0,0,0-.09-.3c-.285-2.5-.463-4.851-.534-7.023.839-.227,1.677-.46,2.511-.714a1,1,0,0,0,.706-1.034c-1.8-23.729-.843-59.137-.207-82.568l.112-4.19L287.9,328.835a143.28,143.28,0,0,0,23.744,8.043,139.413,139.413,0,0,0,96.924,45.488q3.414.162,6.808.162a139.338,139.338,0,0,0,94.267-36.519c55.492-50.467,61.159-135.572,14.044-192.89m-5.462,31.354a2.495,2.495,0,0,1-3.911-1.146l-21.348-61.508a2.5,2.5,0,0,1,3.712-2.935.9.9,0,0,0,.114.063,281.825,281.825,0,0,1,54.787,34.728.889.889,0,0,0,.1.072,2.468,2.468,0,0,1,.183,4.068l-11.819,9.379c-7.2-9.2-16.445-16.956-26.216-25.153l-1.725-1.447a1,1,0,0,0-1.336.044c-.018.017-.025.04-.042.059l-.007,0c-.011.013-.015.029-.026.041a.991.991,0,0,0-.151.241.975.975,0,0,0-.073.279c0,.011,0,.021-.005.031a.98.98,0,0,0,.289.822c.034.034.067.069.1.1a208.164,208.164,0,0,1,20.3,32.016ZM383.71,152.282A50.9,50.9,0,0,1,376.1,125.6c8.316.8,17.55-1.906,20.56-2.9l.488-.156c1.572-.493,2.144-.771,3.695-3.333a2.952,2.952,0,0,1,2.726-1.784,3.365,3.365,0,0,1,2.639,2.374c.665,1.933-.082,4.114-2.05,5.982a1,1,0,0,0-.264,1.033c1.055,3.269,1.614,5.6,2.207,8.068.271,1.128.547,2.277.879,3.553,1.216,4.519,4.865,15.534,6.049,19.041q1.275,3.719,2.576,7.421l.444,1.272a14.805,14.805,0,0,1-12.49,2.416.846.846,0,0,0-.137-.026,20.715,20.715,0,0,0-2.1-.127q.028-1.651-.047-3.3l5.845-14.69a1,1,0,0,0-1.737-.959,29.373,29.373,0,0,1-6.673,6.61l-.009,0c-5.566,3.719-10.621,2.421-14.994-3.823m10.443,19.427a18.98,18.98,0,0,1,8.969-1.164,16.821,16.821,0,0,0,13.619-2.385c5.037,14.472,9.956,29.42,11.061,45.1a112.648,112.648,0,0,1-2.523,32.952s0,.006,0,.01l0,.007A87.222,87.222,0,0,1,390.159,300c-8.95-5.528-17.689-11.547-26.079-17.938,24.951-13.245,39.947-46.023,40.091-46.354a.846.846,0,0,0,.017-.085.916.916,0,0,0,.048-.229,1.063,1.063,0,0,0,0-.149.98.98,0,0,0-.043-.227,1,1,0,0,0-.292-.447,1.054,1.054,0,0,0-.08-.083c-.032-.021-.068-.025-.1-.043s-.046-.039-.075-.051a.713.713,0,0,0-.092-.019.912.912,0,0,0-.2-.043,1,1,0,0,0-.181,0,1.065,1.065,0,0,0-.187.035.972.972,0,0,0-.181.071,1.018,1.018,0,0,0-.147.094.971.971,0,0,0-.16.154c-.018.023-.045.036-.062.06-4.567,6.63-9.521,13.112-14.73,19.273a81.913,81.913,0,0,1-22.786-14.653,94.658,94.658,0,0,1-10.684-11.477,1.05,1.05,0,0,0-.159-.209c-.837-1.067-1.667-2.14-2.456-3.241a427.556,427.556,0,0,0,26.108-38.448,35.7,35.7,0,0,1,2.422-3.487c.019-.021.034-.044.051-.066a34.952,34.952,0,0,1,13.955-10.73M197.456,264.4l-53.784-.507a80.16,80.16,0,0,1-7.406-46.751l69.363-5.165a43.39,43.39,0,0,1,19.893,3.3L250.9,226.041a75.807,75.807,0,0,0,11.777,15.938,72.291,72.291,0,0,0,11.857,9.411,154.033,154.033,0,0,0-27.719-4.5c-23.742-1.465-40.779,4.595-49.364,17.506m-88.375-2.44c-.147-.157-.29-.317-.436-.475-1.176-1.278-2.334-2.569-3.457-3.886v0a136.945,136.945,0,0,1-21.458-34.418c8.205.127,21.325.187,28.983-.046-1.28,14.989-.352,24.983,5.954,37.789-2.819.228-7.053.672-9.585,1.038m6.056-43.245,19.091-1.421a82.119,82.119,0,0,0,7.22,46.578l-19.1-.18c-8.935-16.292-9.118-26.886-7.21-44.977m149,21.9a73.681,73.681,0,0,1-11.289-15.227.986.986,0,0,0-.43-.828c-7.453-14.364-6.568-28.247-5.3-47.831l.144-2.242a38.336,38.336,0,0,1,1.014-7.917,16.064,16.064,0,0,1,.908,2.337c.2.627.411,1.337.623,2.106l5.276,23.208c0,.008.008.014.01.022.86,3.719,1.706,7.029,2.5,9.294a4.389,4.389,0,0,0,1.893,2.383,2.657,2.657,0,0,0,2.39.235c1.388-.562,2.415-2.3,3.433-5.8.02-.068.038-.142.057-.21a.941.941,0,0,0,.082-.3c.464-1.677.875-3.534,1.269-5.346a61.767,61.767,0,0,1,1.511-6.038c1.078-3.19,2.18-4.415,2.448-4.493.056.028,1.36.791,1.691,9.686l.051,1.44c.334,9.776.839,24.55,10.853,30.368a178,178,0,0,0,24.469,11.567,106.385,106.385,0,0,0,27.359,6.706c6.636.334,14-7.981,18.267-13.706a96.714,96.714,0,0,0,10.2,10.825,83.883,83.883,0,0,0,19.376,13.163c-9.623,11.237-18.371,19.056-26.021,23.236l-.015.009-.015.008a22.705,22.705,0,0,1-15.129,2.6c-23.364-4.714-66.874-27.769-77.627-39.252m-9.067-55.74c-1.161-5.377-2.268-10.487-3.306-14.265l-4.024-17.7a2.462,2.462,0,0,1,4.795-1.116l10.884,47.88c-.011.039-.021.082-.033.12-.977,3.364-1.77,4.307-2.263,4.506a.652.652,0,0,1-.62-.1,2.391,2.391,0,0,1-1.019-1.3c-1.365-3.9-2.915-11.077-4.414-18.021M264.25,39.114a33.7,33.7,0,0,1,33.7-33.682h.017a33.7,33.7,0,0,1-.017,67.4h-.017a33.759,33.759,0,0,1-32.118-23.551,1,1,0,0,0-.059-.751,1.017,1.017,0,0,0-.252-.315A33.548,33.548,0,0,1,264.25,39.114ZM63.24,151.963,264.111,50.482a35.877,35.877,0,0,0,16.6,19.9L219.1,190.018,52.441,163.141a23.689,23.689,0,0,1,10.8-11.178M52.73,183.922a23.756,23.756,0,0,1-1.077-18.882L219.5,192.108a1.064,1.064,0,0,0,.159.012,1,1,0,0,0,.888-.542L282.481,71.3a35.475,35.475,0,0,0,15.45,3.528h.02A35.423,35.423,0,0,0,320.3,66.968l57.929,114.75a37.91,37.91,0,0,0-2.218,3.243,425.359,425.359,0,0,1-26.43,38.85,1,1,0,0,0-.024,1.183c.813,1.152,1.658,2.282,2.521,3.4-6.18,8.4-12.319,13.35-16.539,13.35-.093,0-.186,0-.278-.006a104.351,104.351,0,0,1-26.8-6.578,176.124,176.124,0,0,1-24.194-11.435c-9.05-5.259-9.532-19.367-9.852-28.7l-.051-1.447c-.365-9.828-1.908-11.37-3.368-11.582-2.141-.3-3.708,3-4.662,5.822a62.392,62.392,0,0,0-1.571,6.255c-.091.418-.184.84-.277,1.261l-10-43.995a4.462,4.462,0,0,0-8.695,2.007l2.444,10.753a1.469,1.469,0,0,0-.221-.012c-1.367.171-2.21,1.859-2.747,10.275l-.144,2.24c-1.226,18.988-2.1,32.722,4.4,46.686L226.3,213.43a45.4,45.4,0,0,0-20.819-3.45l-91.326,6.8a1,1,0,0,0-.92.89c-.127,1.183-.243,2.33-.35,3.454-8.071.253-22.6.174-30.665.026H82.2l-.02,0c-.007,0-.013,0-.02,0-2.806-.057-5.985-.138-9.386-.225l-1.359-.035Zm27.317,81.514a53.567,53.567,0,0,1-13.916-8.22c-5.837-4.708-14.374-9.873-22.63-14.868C32.845,235.9,19.585,227.877,20.338,224.78c0-.007.4-.761,4.042-1.335.09.1.2.216.3.323.072.078.144.157.219.236.252.269.524.542.813.82l.02.019c4.713,4.514,14.187,10.245,24.162,16.274,9.266,5.6,18.846,11.389,25.324,16.611a67.854,67.854,0,0,0,12.54,7.995,27.253,27.253,0,0,1-7.709-.287m78.318,74.8a23.86,23.86,0,0,1-31.958-10.51L94.529,266.616q2.24-.406,4.629-.87c3.153-.6,6.412-1.23,9.678-1.73h.015c2.622-.41,7.9-.958,10.79-1.165.4.765.8,1.53,1.239,2.318a1,1,0,0,0,.864.515l21.107.2a1.035,1.035,0,0,0,.2.027c.036,0,.069-.021.105-.024l53.076.5c-7.159,12.549-9.865,34.651-9.8,59.683ZM237.9,432.7a53.352,53.352,0,0,1-8.76,13.65c-4.9,5.647-10.37,14.007-15.659,22.091-6.848,10.466-15.37,23.491-18.4,22.527-.008,0-.734-.353-1.188-4.133.117-.094.24-.209.359-.311.074-.063.149-.128.224-.194q.364-.322.743-.689c.074-.072.149-.144.224-.218q.386-.383.784-.807c.076-.08.152-.16.229-.243.267-.289.539-.593.814-.908l.246-.282c.27-.314.544-.641.821-.978.094-.114.188-.226.283-.343.264-.326.533-.664.8-1.008.115-.146.229-.29.344-.438.245-.316.493-.643.742-.972.15-.2.3-.395.451-.6.2-.269.4-.547.608-.825s.42-.572.633-.866l.366-.511c3.088-4.31,6.437-9.409,9.879-14.656,5.947-9.067,12.1-18.442,17.541-24.735.724-.838,1.42-1.7,2.1-2.57.149-.19.3-.379.446-.571q.951-1.24,1.845-2.523c.155-.221.3-.446.455-.669q.783-1.154,1.521-2.337c.1-.158.2-.313.3-.472.541-.888,1.055-1.791,1.556-2.7.076-.139.162-.273.237-.413a27.56,27.56,0,0,1-.544,7.705m-2.479-29.056q-.671.579-1.348,1.147c-.5.419-1,.832-1.505,1.244q-1.6,1.3-3.229,2.56c-.424.326-.85.647-1.276.967q-1.83,1.371-3.7,2.68c-.318.222-.637.444-.957.663q-2.138,1.467-4.328,2.852l-.467.3a136.869,136.869,0,0,1-22.868,11.479c.576-11.1,1.019-22.255.646-30.3a81.988,81.988,0,0,0,38.524-.159c.081,2.051.247,4.246.508,6.567m.395-8.852a.983.983,0,0,0-.4.109,80.463,80.463,0,0,1-41.483-.344c-.759-5.194-1.459-10.521-2.093-15.912A164.508,164.508,0,0,0,237.3,377.8c.155,5.809.4,11.341.765,16.373-.746.219-1.5.421-2.245.618m3.649-89.146-.01-.007c-8.526-3.661-14.587-6.328-14.647-6.355a1,1,0,0,0-1.327,1.3l13.887,33.489c-.276,13.525-.428,28.284-.121,41.708a163.691,163.691,0,0,1-45.644.825,471.01,471.01,0,0,1-3.194-49.958.278.278,0,0,0,0-.029c-.129-25.9,2.7-48.643,10.4-60.668,19.577-30.584,80.652-11.128,81.267-10.927a1.076,1.076,0,0,0,.159.018c18.1,11.145,44.3,23.387,61.162,26.789a24.625,24.625,0,0,0,15.894-2.511q2,1.59,4.023,3.153a1,1,0,0,0,.576.439,327.65,327.65,0,0,0,27.076,18.7c-1.579,3.853-9.925,21.992-30.28,30.9-13.17,5.763-28.614,6.6-46.1,2.534a1,1,0,0,0-.44-.1A141.182,141.182,0,0,1,288.7,327Z" fill="#0f2852"/><path d="M335.314,408.041a26.955,26.955,0,0,0,.219-4.412,26.683,26.683,0,1,0-26.69,27.578c.3,0,.6-.005.9-.015a26.491,26.491,0,0,0,14.912-5.161,10.595,10.595,0,1,0,10.654-17.99m-25.632,21.152a24.684,24.684,0,0,1-1.634-49.34q.42-.014.837-.014a24.508,24.508,0,0,1,16.846,6.663h0a24.5,24.5,0,0,1,7.8,17.193,25,25,0,0,1-.163,3.79,10.589,10.589,0,0,0-12.3,8.347h0a10.582,10.582,0,0,0,2.177,8.76,24.507,24.507,0,0,1-13.563,4.6" fill="#0f2852"/></g></g></g></svg>